<mxfile host="app.diagrams.net" modified="2023-03-13T12:01:04.578Z" agent="5.0 (Windows NT 10.0; Win64; x64) AppleWebKit/537.36 (KHTML, like Gecko) Chrome/110.0.0.0 Safari/537.36 Edg/110.0.1587.63" etag="rcbzCH2dUcngEvRA9zbA" version="21.0.6" type="github">
  <diagram name="第 1 页" id="Flv63FnMP80BCibTTyiG">
    <mxGraphModel dx="2193" dy="836" grid="1" gridSize="10" guides="1" tooltips="1" connect="1" arrows="1" fold="1" page="1" pageScale="1" pageWidth="827" pageHeight="1169" math="0" shadow="0">
      <root>
        <mxCell id="0" />
        <mxCell id="1" parent="0" />
        <mxCell id="EkiwoIS4mDgj1RNWEg4G-1" value="&lt;b&gt;&lt;font style=&quot;font-size: 17px;&quot;&gt;读未提交&lt;/font&gt;&lt;/b&gt;" style="rounded=0;whiteSpace=wrap;html=1;fontSize=15;fillColor=#dae8fc;strokeColor=#6c8ebf;" vertex="1" parent="1">
          <mxGeometry x="100" y="160" width="150" height="40" as="geometry" />
        </mxCell>
        <mxCell id="EkiwoIS4mDgj1RNWEg4G-2" value="&lt;b&gt;&lt;font style=&quot;font-size: 17px;&quot;&gt;读已提交&lt;/font&gt;&lt;/b&gt;" style="rounded=0;whiteSpace=wrap;html=1;fontSize=15;fillColor=#dae8fc;strokeColor=#6c8ebf;" vertex="1" parent="1">
          <mxGeometry x="250" y="160" width="150" height="40" as="geometry" />
        </mxCell>
        <mxCell id="EkiwoIS4mDgj1RNWEg4G-3" value="&lt;span style=&quot;font-size: 17px;&quot;&gt;&lt;b&gt;200&lt;/b&gt;&lt;/span&gt;" style="rounded=0;whiteSpace=wrap;html=1;fontSize=15;fillColor=#f5f5f5;strokeColor=#666666;fontColor=#333333;" vertex="1" parent="1">
          <mxGeometry x="100" y="200" width="150" height="40" as="geometry" />
        </mxCell>
        <mxCell id="EkiwoIS4mDgj1RNWEg4G-4" value="&lt;span style=&quot;font-size: 17px;&quot;&gt;&lt;b&gt;200&lt;/b&gt;&lt;/span&gt;" style="rounded=0;whiteSpace=wrap;html=1;fontSize=15;fillColor=#e1d5e7;strokeColor=#9673a6;" vertex="1" parent="1">
          <mxGeometry x="250" y="240" width="150" height="40" as="geometry" />
        </mxCell>
        <mxCell id="EkiwoIS4mDgj1RNWEg4G-5" value="100" style="rounded=0;whiteSpace=wrap;html=1;fontSize=15;fontStyle=1;fillColor=#f5f5f5;fontColor=#333333;strokeColor=#666666;" vertex="1" parent="1">
          <mxGeometry x="250" y="200" width="150" height="40" as="geometry" />
        </mxCell>
        <mxCell id="EkiwoIS4mDgj1RNWEg4G-6" value="200" style="rounded=0;whiteSpace=wrap;html=1;fontSize=15;" vertex="1" parent="1">
          <mxGeometry x="100" y="240" width="150" height="40" as="geometry" />
        </mxCell>
        <mxCell id="EkiwoIS4mDgj1RNWEg4G-7" value="&lt;span style=&quot;font-size: 17px;&quot;&gt;&lt;b&gt;可重复读&lt;/b&gt;&lt;/span&gt;" style="rounded=0;whiteSpace=wrap;html=1;fontSize=15;fillColor=#dae8fc;strokeColor=#6c8ebf;" vertex="1" parent="1">
          <mxGeometry x="400" y="160" width="150" height="40" as="geometry" />
        </mxCell>
        <mxCell id="EkiwoIS4mDgj1RNWEg4G-8" value="&lt;b&gt;&lt;font style=&quot;font-size: 17px;&quot;&gt;串行化&lt;/font&gt;&lt;/b&gt;" style="rounded=0;whiteSpace=wrap;html=1;fontSize=15;fillColor=#dae8fc;strokeColor=#6c8ebf;" vertex="1" parent="1">
          <mxGeometry x="550" y="160" width="150" height="40" as="geometry" />
        </mxCell>
        <mxCell id="EkiwoIS4mDgj1RNWEg4G-9" value="&lt;span style=&quot;font-size: 17px;&quot;&gt;&lt;b&gt;200&lt;/b&gt;&lt;/span&gt;" style="rounded=0;whiteSpace=wrap;html=1;fontSize=15;fillColor=#f5f5f5;strokeColor=#666666;fontColor=#333333;" vertex="1" parent="1">
          <mxGeometry x="100" y="280" width="150" height="40" as="geometry" />
        </mxCell>
        <mxCell id="EkiwoIS4mDgj1RNWEg4G-10" value="&lt;span style=&quot;font-size: 17px;&quot;&gt;&lt;b&gt;200&lt;/b&gt;&lt;/span&gt;" style="rounded=0;whiteSpace=wrap;html=1;fontSize=15;fillColor=#e1d5e7;strokeColor=#9673a6;" vertex="1" parent="1">
          <mxGeometry x="250" y="280" width="150" height="40" as="geometry" />
        </mxCell>
        <mxCell id="EkiwoIS4mDgj1RNWEg4G-11" value="&lt;span style=&quot;font-size: 17px;&quot;&gt;&lt;span&gt;100&lt;/span&gt;&lt;/span&gt;" style="rounded=0;whiteSpace=wrap;html=1;fontSize=15;fillColor=#f5f5f5;strokeColor=#666666;fontColor=#333333;fontStyle=1" vertex="1" parent="1">
          <mxGeometry x="400" y="240" width="150" height="40" as="geometry" />
        </mxCell>
        <mxCell id="EkiwoIS4mDgj1RNWEg4G-12" value="100" style="rounded=0;whiteSpace=wrap;html=1;fontSize=15;fillColor=#f5f5f5;fontColor=#333333;strokeColor=#666666;fontStyle=1" vertex="1" parent="1">
          <mxGeometry x="400" y="200" width="150" height="40" as="geometry" />
        </mxCell>
        <mxCell id="EkiwoIS4mDgj1RNWEg4G-13" value="&lt;span style=&quot;font-size: 17px;&quot;&gt;&lt;span&gt;200&lt;/span&gt;&lt;/span&gt;" style="rounded=0;whiteSpace=wrap;html=1;fontSize=15;fillColor=#f5f5f5;strokeColor=#666666;fontColor=#333333;fontStyle=1" vertex="1" parent="1">
          <mxGeometry x="400" y="280" width="150" height="40" as="geometry" />
        </mxCell>
        <mxCell id="EkiwoIS4mDgj1RNWEg4G-14" value="&lt;span style=&quot;font-size: 17px;&quot;&gt;&lt;span&gt;100&lt;/span&gt;&lt;/span&gt;" style="rounded=0;whiteSpace=wrap;html=1;fontSize=15;fillColor=#f5f5f5;strokeColor=#666666;fontColor=#333333;fontStyle=1" vertex="1" parent="1">
          <mxGeometry x="550" y="240" width="150" height="40" as="geometry" />
        </mxCell>
        <mxCell id="EkiwoIS4mDgj1RNWEg4G-15" value="100" style="rounded=0;whiteSpace=wrap;html=1;fontSize=15;fillColor=#f5f5f5;fontColor=#333333;strokeColor=#666666;fontStyle=1" vertex="1" parent="1">
          <mxGeometry x="550" y="200" width="150" height="40" as="geometry" />
        </mxCell>
        <mxCell id="EkiwoIS4mDgj1RNWEg4G-16" value="&lt;span style=&quot;font-size: 17px;&quot;&gt;&lt;span&gt;200&lt;/span&gt;&lt;/span&gt;" style="rounded=0;whiteSpace=wrap;html=1;fontSize=15;fillColor=#f5f5f5;strokeColor=#666666;fontColor=#333333;fontStyle=1" vertex="1" parent="1">
          <mxGeometry x="550" y="280" width="150" height="40" as="geometry" />
        </mxCell>
        <mxCell id="EkiwoIS4mDgj1RNWEg4G-17" value="" style="rounded=0;whiteSpace=wrap;html=1;fontSize=15;" vertex="1" parent="1">
          <mxGeometry x="-50" y="160" width="150" height="40" as="geometry" />
        </mxCell>
        <mxCell id="EkiwoIS4mDgj1RNWEg4G-18" value="&lt;b&gt;&lt;font style=&quot;font-size: 17px;&quot;&gt;V1&lt;/font&gt;&lt;/b&gt;" style="rounded=0;whiteSpace=wrap;html=1;fontSize=15;fillColor=#fff2cc;strokeColor=#d6b656;" vertex="1" parent="1">
          <mxGeometry x="-50" y="200" width="150" height="40" as="geometry" />
        </mxCell>
        <mxCell id="EkiwoIS4mDgj1RNWEg4G-19" value="&lt;span style=&quot;font-size: 17px;&quot;&gt;&lt;b&gt;V2&lt;/b&gt;&lt;/span&gt;" style="rounded=0;whiteSpace=wrap;html=1;fontSize=15;fillColor=#fff2cc;strokeColor=#d6b656;" vertex="1" parent="1">
          <mxGeometry x="-50" y="240" width="150" height="40" as="geometry" />
        </mxCell>
        <mxCell id="EkiwoIS4mDgj1RNWEg4G-20" value="&lt;b&gt;&lt;font style=&quot;font-size: 17px;&quot;&gt;V3&lt;/font&gt;&lt;/b&gt;" style="rounded=0;whiteSpace=wrap;html=1;fontSize=15;fillColor=#fff2cc;strokeColor=#d6b656;" vertex="1" parent="1">
          <mxGeometry x="-50" y="280" width="150" height="40" as="geometry" />
        </mxCell>
        <mxCell id="EkiwoIS4mDgj1RNWEg4G-21" value="&lt;span style=&quot;font-size: 17px;&quot;&gt;&lt;span&gt;200&lt;/span&gt;&lt;/span&gt;" style="rounded=0;whiteSpace=wrap;html=1;fontSize=15;fillColor=#f5f5f5;strokeColor=#666666;fontColor=#333333;fontStyle=1" vertex="1" parent="1">
          <mxGeometry x="100" y="200" width="150" height="40" as="geometry" />
        </mxCell>
        <mxCell id="EkiwoIS4mDgj1RNWEg4G-22" value="200" style="rounded=0;whiteSpace=wrap;html=1;fontSize=15;fillColor=#f5f5f5;fontColor=#333333;strokeColor=#666666;fontStyle=1" vertex="1" parent="1">
          <mxGeometry x="100" y="240" width="150" height="40" as="geometry" />
        </mxCell>
        <mxCell id="EkiwoIS4mDgj1RNWEg4G-23" value="&lt;span style=&quot;font-size: 17px;&quot;&gt;&lt;span&gt;200&lt;/span&gt;&lt;/span&gt;" style="rounded=0;whiteSpace=wrap;html=1;fontSize=15;fillColor=#f5f5f5;strokeColor=#666666;fontColor=#333333;fontStyle=1" vertex="1" parent="1">
          <mxGeometry x="100" y="280" width="150" height="40" as="geometry" />
        </mxCell>
        <mxCell id="EkiwoIS4mDgj1RNWEg4G-24" value="&lt;span style=&quot;font-size: 17px;&quot;&gt;&lt;span&gt;200&lt;/span&gt;&lt;/span&gt;" style="rounded=0;whiteSpace=wrap;html=1;fontSize=15;fillColor=#f5f5f5;strokeColor=#666666;fontColor=#333333;fontStyle=1" vertex="1" parent="1">
          <mxGeometry x="250" y="280" width="150" height="40" as="geometry" />
        </mxCell>
        <mxCell id="EkiwoIS4mDgj1RNWEg4G-25" value="&lt;span style=&quot;font-size: 17px;&quot;&gt;&lt;span&gt;200&lt;/span&gt;&lt;/span&gt;" style="rounded=0;whiteSpace=wrap;html=1;fontSize=15;fillColor=#f5f5f5;strokeColor=#666666;fontColor=#333333;fontStyle=1" vertex="1" parent="1">
          <mxGeometry x="250" y="240" width="150" height="40" as="geometry" />
        </mxCell>
      </root>
    </mxGraphModel>
  </diagram>
</mxfile>
